<svg width="214" height="213" viewBox="0 0 214 213" fill="none" xmlns="http://www.w3.org/2000/svg">
<path d="M26.6058 8.06488C26.6058 8.06488 18 6.51069 18 18.6156C18 30.7206 20.0427 179.008 20.0427 179.008C20.0427 179.008 23.5418 184.923 24.8562 184.648C26.1617 184.364 48.3645 181.451 48.6576 181.415L48.8086 181.389L48.9329 145.731L49.1816 64.0247L88.365 64.1402L88.3295 61.2982L49.1905 60.8098L49.2437 46.4224L95.6386 47.3815L95.7452 44.3797L49.2526 43.0298L49.2793 35.2322C49.2793 35.2322 48.7464 29.2374 52.5475 29.2374C56.3397 29.2374 152.78 32.5945 152.78 32.5945C152.78 32.5945 155.941 32.7011 156.048 34.8858V40.9872L146.217 42.0085L146.128 45.9073L107.317 44.7172L107.264 47.6302L146.261 48.4295L146.217 61.8222L124.44 61.7334L124.413 64.2379L146.359 64.3001L146.385 66.1296H156.066C156.101 88.954 156.137 114.487 156.119 134.754C161.119 136.148 168.899 138.617 168.899 138.617L155.941 140.482C155.941 142.472 155.968 145.58 155.986 148.706L147.407 145.598L141.367 146.335L156.004 151.575L156.021 154.843L175.16 152.25L175.089 20.8093C175.089 20.8093 175.196 15.9335 169.885 15.7826C164.583 15.6316 26.6058 8.06488 26.6058 8.06488ZM84.404 38.2429L84.3596 43.1541L96.3847 43.4295L96.1182 51.1738L88.8091 50.9962L89.0133 67.0177L91.6333 66.7512L91.7043 69.8685L100.639 70.1349V75.1794C100.728 75.1794 100.799 75.209 100.852 75.2682C100.905 75.3274 100.938 75.3985 100.95 75.4814V75.5968L103.152 76.6626C103.213 76.6853 103.264 76.7295 103.294 76.7869C103.32 76.8423 103.327 76.905 103.312 76.9645L103.294 77.0178L107.14 78.0924L106.953 59.8506L107.104 59.6908C107.3 59.6908 123.135 59.6197 123.135 59.5309L123.152 51.0939L106.571 51.2004L106.847 39.3441L84.404 38.2429ZM123.126 60.2858L108.179 60.4368L108.356 77.453L123.117 77.0533L123.126 60.2858ZM100.639 75.4725L99.1911 76.8757L101.127 78.7407L103.019 76.929L100.639 75.7744V75.4725ZM123.037 126.05C122.77 126.05 50.345 134.035 50.345 134.035L79.8658 149.337L168.091 138.573C168.091 138.573 123.303 126.05 123.037 126.05ZM49.8832 134.292L49.972 138.697L51.9702 139.71L57.6808 139.887L77.2725 150.26L74.8924 151.903L78.6935 154.479L90.7718 153.466L93.818 151.814L151.927 144.754L155.249 145.305L154.964 140.713L79.555 149.985L49.8832 134.292ZM55.869 145.713L49.3592 145.891L49.2704 181.54L57.0147 179.977L56.6772 171.673L86.9263 193.831C86.9263 193.831 86.6865 197.863 87.2105 201.584C87.7345 205.297 92.8677 204.888 92.8677 204.888L104.804 202.401L106.66 200.252L180.125 186.673L182.07 188.511L192.771 186.309C193.864 186.078 194.725 184.524 195.285 183.511C195.862 182.499 195.063 167.454 195.24 162.729C195.391 158.768 194.512 158.946 194.05 158.831L187.061 160.03C187.061 160.03 185.134 160.527 184.166 160.118C182.558 159.434 182.736 158.28 182.736 158.28C182.736 158.28 182.824 156.308 182.114 154.106C181.404 151.903 179.743 152.232 179.743 152.232L114.36 161.077C114.36 161.077 110.932 161.593 107.948 162.33L91.3136 153.511L90.9317 153.715C90.8907 153.737 90.8451 153.749 90.7984 153.751L85.9494 154.168L104.573 163.653C104.546 163.706 104.236 163.724 104.236 163.786C103.33 171.646 102.371 172.596 99.9549 172.96L87.1661 174.701L58.7288 155.9L55.869 145.713Z" fill="#FFCF1C"/>
</svg>
