<svg width="214" height="214" viewBox="0 0 214 214" fill="none" xmlns="http://www.w3.org/2000/svg">
<g clip-path="url(#clip0_221_39)">
<path d="M125.792 14.0437C120.268 -4.68125 93.732 -4.68125 88.2081 14.0437L86.8706 18.5912C86.0453 21.3946 84.6029 23.9776 82.6494 26.151C80.6958 28.3243 78.2805 30.0328 75.5807 31.1512C72.8809 32.2696 69.965 32.7696 67.0468 32.6144C64.1286 32.4591 61.2822 31.6527 58.7162 30.2543L54.57 27.9805C37.4099 18.6447 18.6447 37.4099 27.9939 54.5566L30.2543 58.7162C36.2195 69.6837 30.5619 83.3396 18.5912 86.8706L14.0437 88.2081C-4.68125 93.732 -4.68125 120.268 14.0437 125.792L18.5912 127.129C21.3946 127.955 23.9776 129.397 26.151 131.351C28.3243 133.304 30.0328 135.719 31.1512 138.419C32.2696 141.119 32.7696 144.035 32.6144 146.953C32.4591 149.871 31.6527 152.718 30.2543 155.284L27.9805 159.43C18.6447 176.59 37.4099 195.355 54.5566 186.006L58.7162 183.746C61.2822 182.347 64.1286 181.541 67.0468 181.386C69.965 181.23 72.8809 181.73 75.5807 182.849C78.2805 183.967 80.6958 185.676 82.6494 187.849C84.6029 190.022 86.0453 192.605 86.8706 195.409L88.2081 199.956C93.732 218.681 120.268 218.681 125.792 199.956L127.129 195.409C127.955 192.605 129.397 190.022 131.351 187.849C133.304 185.676 135.719 183.967 138.419 182.849C141.119 181.73 144.035 181.23 146.953 181.386C149.871 181.541 152.718 182.347 155.284 183.746L159.43 186.019C176.59 195.355 195.355 176.59 186.006 159.443L183.746 155.284C182.347 152.718 181.541 149.871 181.386 146.953C181.23 144.035 181.73 141.119 182.849 138.419C183.967 135.719 185.676 133.304 187.849 131.351C190.022 129.397 192.605 127.955 195.409 127.129L199.956 125.792C218.681 120.268 218.681 93.732 199.956 88.2081L195.409 86.8706C192.605 86.0453 190.022 84.6029 187.849 82.6494C185.676 80.6958 183.967 78.2805 182.849 75.5807C181.73 72.8809 181.23 69.965 181.386 67.0468C181.541 64.1286 182.347 61.2822 183.746 58.7162L186.019 54.57C195.355 37.4099 176.59 18.6447 159.443 27.9939L155.284 30.2543C152.718 31.6527 149.871 32.4591 146.953 32.6144C144.035 32.7696 141.119 32.2696 138.419 31.1512C135.719 30.0328 133.304 28.3243 131.351 26.151C129.397 23.9776 127.955 21.3946 127.129 18.5912L125.792 14.0437ZM107 146.189C96.6065 146.189 86.6387 142.06 79.2894 134.711C71.9401 127.361 67.8113 117.394 67.8113 107C67.8113 96.6065 71.9401 86.6387 79.2894 79.2894C86.6387 71.9401 96.6065 67.8113 107 67.8113C117.39 67.8113 127.354 71.9386 134.701 79.2854C142.048 86.6323 146.175 96.5967 146.175 106.987C146.175 117.377 142.048 127.341 134.701 134.688C127.354 142.035 117.39 146.162 107 146.162V146.189Z" fill="#FFCF1C"/>
</g>
<defs>
<clipPath id="clip0_221_39">
<rect width="214" height="214" fill="white"/>
</clipPath>
</defs>
</svg>
