<svg width="214" height="214" viewBox="0 0 214 214" fill="none" xmlns="http://www.w3.org/2000/svg">
<path d="M66.8752 31.2084C53.0008 31.6275 44.7351 33.17 39.0106 38.8945C31.1729 46.7412 31.1729 59.3583 31.1729 84.6014V142.613C31.1729 167.865 31.1729 180.482 39.0106 188.329C46.8394 196.167 59.4565 196.167 84.6728 196.167H129.256C154.481 196.167 167.09 196.167 174.918 188.32C182.765 180.482 182.765 167.865 182.765 142.613V84.6014C182.765 59.3672 182.765 46.7412 174.918 38.8945C169.203 33.17 160.928 31.6275 147.054 31.2084" fill="#FFCF1C"/>
<path d="M66.8752 31.2084C53.0008 31.6275 44.7351 33.17 39.0106 38.8945C31.1729 46.7412 31.1729 59.3583 31.1729 84.6014V142.613C31.1729 167.865 31.1729 180.482 39.0106 188.329C46.8394 196.167 59.4565 196.167 84.6728 196.167H129.256C154.481 196.167 167.09 196.167 174.918 188.32C182.765 180.482 182.765 167.865 182.765 142.613V84.6014C182.765 59.3672 182.765 46.7412 174.918 38.8945C169.203 33.17 160.928 31.6275 147.054 31.2084" stroke="#FFCF1C" stroke-width="1.5" stroke-linecap="round" stroke-linejoin="round"/>
<path d="M57.9585 89.1667H93.6252M120.375 98.0834C120.375 98.0834 124.833 98.0834 129.292 107C129.292 107 143.451 84.7084 156.042 80.25M57.9585 142.667H93.6252M120.375 151.583C120.375 151.583 124.833 151.583 129.292 160.5C129.292 160.5 143.451 138.208 156.042 133.75M66.8395 33.4375C66.8395 24.824 73.8302 17.8334 82.4437 17.8334H131.485C135.624 17.8334 139.593 19.4774 142.519 22.4037C145.445 25.3301 147.09 29.2991 147.09 33.4375C147.09 37.576 145.445 41.545 142.519 44.4714C139.593 47.3977 135.624 49.0417 131.485 49.0417H82.4437C78.3052 49.0417 74.3362 47.3977 71.4099 44.4714C68.4835 41.545 66.8395 37.576 66.8395 33.4375Z" stroke="white" stroke-width="6" stroke-linecap="round" stroke-linejoin="round"/>
</svg>
