<svg width="214" height="214" viewBox="0 0 214 214" fill="none" xmlns="http://www.w3.org/2000/svg">
<path d="M24.298 187.25C22.6633 187.25 21.1771 186.843 19.8396 186.028C18.5021 185.214 17.4619 184.135 16.7188 182.792C15.9758 181.448 15.5686 179.998 15.4972 178.44C15.4259 176.883 15.8331 175.361 16.7188 173.875L99.198 31.2083C100.09 29.7222 101.243 28.6076 102.658 27.8646C104.072 27.1215 105.52 26.75 107 26.75C108.48 26.75 109.931 27.1215 111.351 27.8646C112.772 28.6076 113.922 29.7222 114.802 31.2083L197.281 173.875C198.173 175.361 198.583 176.886 198.512 178.449C198.44 180.013 198.03 181.46 197.281 182.792C196.532 184.123 195.492 185.202 194.16 186.028C192.829 186.855 191.343 187.262 189.702 187.25H24.298ZM107 160.5C109.526 160.5 111.646 159.644 113.358 157.932C115.07 156.22 115.923 154.104 115.917 151.583C115.911 149.063 115.055 146.947 113.349 145.235C111.643 143.523 109.526 142.667 107 142.667C104.474 142.667 102.357 143.523 100.651 145.235C98.9453 146.947 98.0893 149.063 98.0834 151.583C98.0775 154.104 98.9335 156.223 100.651 157.941C102.369 159.659 104.486 160.512 107 160.5ZM107 133.75C109.526 133.75 111.646 132.894 113.358 131.182C115.07 129.47 115.923 127.354 115.917 124.833V98.0833C115.917 95.5569 115.061 93.4407 113.349 91.7347C111.637 90.0286 109.521 89.1726 107 89.1667C104.48 89.1607 102.363 90.0167 100.651 91.7347C98.9394 93.4526 98.0834 95.5688 98.0834 98.0833V124.833C98.0834 127.36 98.9394 129.479 100.651 131.191C102.363 132.903 104.48 133.756 107 133.75Z" fill="#FFCF1C"/>
</svg>
