<svg width="180" height="180" viewBox="0 0 180 180" fill="none" xmlns="http://www.w3.org/2000/svg">
<path d="M59.7107 18.791C57.613 20.8893 56.4346 23.7348 56.4346 26.7018C56.4346 29.6689 57.613 32.5144 59.7107 34.6127L115.098 89.9999L59.7107 145.387C57.6724 147.498 56.5446 150.324 56.5701 153.258C56.5956 156.192 57.7724 158.998 59.847 161.073C61.9216 163.147 64.728 164.324 67.6618 164.349C70.5956 164.375 73.4221 163.247 75.5324 161.209L138.831 97.9108C140.928 95.8125 142.107 92.967 142.107 89.9999C142.107 87.0329 140.928 84.1874 138.831 82.0891L75.5324 18.791C73.4341 16.6933 70.5885 15.5149 67.6215 15.5149C64.6545 15.5149 61.809 16.6933 59.7107 18.791Z" fill="white"/>
</svg>
