<svg width="180" height="180" viewBox="0 0 180 180" fill="none" xmlns="http://www.w3.org/2000/svg">
<path d="M120.29 18.791C122.387 20.8893 123.566 23.7348 123.566 26.7018C123.566 29.6689 122.387 32.5144 120.29 34.6127L64.9025 90L120.29 145.387C122.328 147.498 123.456 150.324 123.43 153.258C123.405 156.192 122.228 158.998 120.153 161.073C118.079 163.147 115.272 164.324 112.339 164.349C109.405 164.375 106.578 163.247 104.468 161.209L41.1699 97.9108C39.0722 95.8125 37.8938 92.967 37.8938 90C37.8938 87.0329 39.0722 84.1874 41.1699 82.0891L104.468 18.791C106.566 16.6933 109.412 15.5149 112.379 15.5149C115.346 15.5149 118.191 16.6933 120.29 18.791Z" fill="white"/>
</svg>
