<svg width="72" height="72" viewBox="0 0 72 72" fill="none" xmlns="http://www.w3.org/2000/svg">
<path d="M12 57V30C12 29.05 12.213 28.15 12.639 27.3C13.065 26.45 13.652 25.75 14.4 25.2L32.4 11.7C33.45 10.9 34.65 10.5 36 10.5C37.35 10.5 38.55 10.9 39.6 11.7L57.6 25.2C58.35 25.75 58.938 26.45 59.364 27.3C59.79 28.15 60.002 29.05 60 30V57C60 58.65 59.412 60.063 58.236 61.239C57.06 62.415 55.648 63.002 54 63H45C44.15 63 43.438 62.712 42.864 62.136C42.29 61.56 42.002 60.848 42 60V45C42 44.15 41.712 43.438 41.136 42.864C40.56 42.29 39.848 42.002 39 42H33C32.15 42 31.438 42.288 30.864 42.864C30.29 43.44 30.002 44.152 30 45V60C30 60.85 29.712 61.563 29.136 62.139C28.56 62.715 27.848 63.002 27 63H18C16.35 63 14.938 62.413 13.764 61.239C12.59 60.065 12.002 58.652 12 57Z" fill="white"/>
</svg>
