<svg width="112" height="112" viewBox="0 0 112 112" fill="none" xmlns="http://www.w3.org/2000/svg">
<path d="M14 56C14 50.4845 15.0864 45.023 17.1971 39.9273C19.3078 34.8316 22.4015 30.2016 26.3015 26.3015C30.2016 22.4015 34.8316 19.3078 39.9273 17.1971C45.023 15.0864 50.4845 14 56 14C61.5155 14 66.977 15.0864 72.0727 17.1971C77.1684 19.3078 81.7984 22.4015 85.6985 26.3015C89.5985 30.2016 92.6922 34.8316 94.8029 39.9273C96.9136 45.023 98 50.4845 98 56C98 67.1391 93.575 77.822 85.6985 85.6985C77.822 93.575 67.1391 98 56 98C44.8609 98 34.178 93.575 26.3015 85.6985C18.425 77.822 14 67.1391 14 56Z" stroke="#00152F" stroke-width="12" stroke-linecap="round" stroke-linejoin="round"/>
</svg>
