<svg width="154" height="164" viewBox="0 0 154 164" fill="none" xmlns="http://www.w3.org/2000/svg">
<path d="M35.5407 24.124L35.5412 24.1243L127.304 73.5037V73.7049L127.564 73.8471C129.055 74.6619 130.3 75.8631 131.166 77.3246C132.033 78.7861 132.491 80.454 132.491 82.1533C132.491 83.8526 132.033 85.5205 131.166 86.982C130.3 88.4433 129.056 89.6443 127.565 90.459C127.565 90.4592 127.564 90.4594 127.564 90.4595L35.5412 139.979L35.5407 139.979C28.2031 143.938 19.705 137.082 22.0224 129.068L22.0229 129.066L34.6319 84.9345L34.6329 84.931C35.1657 83.0131 35.1657 81.0902 34.6329 79.1723L34.6319 79.1687L22.0229 35.0371L22.0224 35.0356C19.705 27.0211 28.2031 20.1655 35.5407 24.124Z" fill="white" stroke="white"/>
</svg>
